<svg width="214" height="133" viewBox="0 0 214 133" fill="none" xmlns="http://www.w3.org/2000/svg">
<rect width="214" height="132.239" fill="#F1F3F7"/>
<rect width="28.4385" height="24.1728" transform="translate(88.1592 54.0332)" fill="white"/>
<path d="M102.464 78.2038C98.2986 78.2038 94.1326 78.2038 89.9667 78.2038C89.7632 78.2038 89.5571 78.2038 89.3527 78.1835C88.3098 78.0895 87.8905 77.4118 88.3352 76.4954C88.7211 75.7042 89.1422 74.9334 89.5509 74.1507C91.4807 70.4654 93.4104 66.7807 95.3402 63.0965C95.3998 62.984 95.4621 62.8714 95.5314 62.764C96.0174 62.0126 96.8068 61.9068 97.4287 62.555C97.8673 63.0085 98.2383 63.5179 98.6295 64.0095C100.618 66.5158 102.606 69.0233 104.594 71.5318C105.463 72.6234 106.556 72.6826 107.577 71.7011C108.083 71.2137 108.577 70.7136 109.09 70.2304C110.013 69.3589 111.062 69.4114 111.816 70.4276C113.33 72.4668 114.806 74.5331 116.289 76.5927C116.405 76.7543 116.494 76.9325 116.553 77.1207C116.696 77.5937 116.493 77.9745 115.996 78.1005C115.684 78.1726 115.364 78.2058 115.043 78.1995C110.852 78.2063 106.66 78.2077 102.464 78.2038Z" fill="#D4D2E3"/>
<path d="M111.807 58.0103C111.806 58.7969 111.563 59.5654 111.108 60.2186C110.654 60.8717 110.009 61.3799 109.255 61.6789C108.5 61.9778 107.671 62.054 106.872 61.8978C106.073 61.7415 105.34 61.3599 104.766 60.8013C104.191 60.2426 103.802 59.5321 103.647 58.7599C103.492 57.9876 103.579 57.1883 103.895 56.4634C104.212 55.7385 104.744 55.1205 105.425 54.6879C106.106 54.2553 106.905 54.0274 107.72 54.0333C108.806 54.0466 109.843 54.471 110.608 55.2149C111.372 55.9588 111.803 56.9628 111.807 58.0103Z" fill="#D4D2E3"/>
</svg>
