<svg width="86" height="86" viewBox="0 0 86 86" fill="none" xmlns="http://www.w3.org/2000/svg">
<mask id="mask0_28_6180" style="mask-type:alpha" maskUnits="userSpaceOnUse" x="0" y="0" width="86" height="86">
<rect width="85.3824" height="85.3824" fill="#D9D9D9"/>
</mask>
<g mask="url(#mask0_28_6180)">
<path d="M42.6913 59.5213C46.4084 59.5213 49.5497 58.2385 52.1154 55.6729C54.681 53.1073 55.9638 49.9659 55.9638 46.2488C55.9638 42.5317 54.681 39.3904 52.1154 36.8247C49.5497 34.2591 46.4084 32.9763 42.6913 32.9763C38.9742 32.9763 35.8328 34.2591 33.2672 36.8247C30.7016 39.3904 29.4187 42.5317 29.4187 46.2488C29.4187 49.9659 30.7016 53.1073 33.2672 55.6729C35.8328 58.2385 38.9742 59.5213 42.6913 59.5213ZM42.6913 55.9637C39.927 55.9637 37.6169 55.0355 35.7611 53.179C33.9046 51.3232 32.9763 49.0131 32.9763 46.2488C32.9763 43.4846 33.9046 41.1745 35.7611 39.3186C37.6169 37.4621 39.927 36.5339 42.6913 36.5339C45.4555 36.5339 47.7656 37.4621 49.6215 39.3186C51.478 41.1745 52.4062 43.4846 52.4062 46.2488C52.4062 49.0131 51.478 51.3232 49.6215 53.179C47.7656 55.0355 45.4555 55.9637 42.6913 55.9637ZM16.4202 71.152C14.7825 71.152 13.4152 70.6036 12.3182 69.5066C11.2213 68.4097 10.6729 67.0424 10.6729 65.4047V27.0929C10.6729 25.4552 11.2213 24.0879 12.3182 22.991C13.4152 21.8941 14.7825 21.3456 16.4202 21.3456H26.9418L33.5233 14.2304H51.8592L58.4408 21.3456H68.9624C70.6001 21.3456 71.9674 21.8941 73.0643 22.991C74.1612 24.0879 74.7097 25.4552 74.7097 27.0929V65.4047C74.7097 67.0424 74.1612 68.4097 73.0643 69.5066C71.9674 70.6036 70.6001 71.152 68.9624 71.152H16.4202ZM16.4202 67.5944H68.9624C69.601 67.5944 70.1257 67.3893 70.5366 66.979C70.9469 66.5681 71.1521 66.0433 71.1521 65.4047V27.0929C71.1521 26.4543 70.9469 25.9296 70.5366 25.5187C70.1257 25.1084 69.601 24.9032 68.9624 24.9032H56.8808L50.3197 17.788H35.0629L28.5018 24.9032H16.4202C15.7816 24.9032 15.2568 25.1084 14.8459 25.5187C14.4356 25.9296 14.2305 26.4543 14.2305 27.0929V65.4047C14.2305 66.0433 14.4356 66.5681 14.8459 66.979C15.2568 67.3893 15.7816 67.5944 16.4202 67.5944Z" fill="#667085"/>
</g>
</svg>
