<svg width="106" height="27" viewBox="0 0 106 27" fill="none" xmlns="http://www.w3.org/2000/svg">
<path d="M19.7548 18.8528C19.7548 24.1568 15.3224 26.6667 9.81303 26.6667C1.33174 26.6653 0 21.4334 0 17.9921H4.17627C4.15079 21.3967 6.35426 22.7944 9.78755 22.7944C13.7841 22.7944 15.7059 21.4687 15.7059 18.9235C15.7059 12.0055 0.254814 19.5693 0.254814 8.35092C0.256155 3.5487 3.7404 0.716507 10.147 0.716507C15.604 0.716507 19.5764 3.18971 19.5 9.67653H15.5799C15.5799 5.94834 13.4274 4.48001 10.1483 4.48001C6.66406 4.48001 4.43377 5.69822 4.43377 8.63782C4.43377 14.9466 19.7561 8.42301 19.7561 18.8528H19.7548Z" fill="white"/>
<path d="M28.1342 13.8343C31.4911 13.8343 34.0272 15.9485 35.7693 17.5611C35.7948 16.9166 35.7693 15.4822 35.7693 14.9084C35.7693 11.3243 34.514 9.85455 31.2081 9.85455H23.726L23.7005 5.98364H32.5667C37.435 5.98364 39.6129 8.81583 39.6129 15.4101V22.1838H42.149V26.1974H37.6388V26.1621L37.152 26.1974C36.3325 26.1974 35.9731 24.9424 35.9731 24.1185C35.9731 22.9724 36.46 20.8567 36.7161 20.3197L35.9476 19.7459C34.231 25.1219 30.7722 26.5196 28.3636 26.5196C25.2119 26.5196 22.1367 24.0817 22.1367 19.7812C22.1367 15.4807 25.0067 13.8314 28.1329 13.8314L28.1342 13.8343ZM29.8254 23.4402C33.4894 23.4402 35.0531 19.175 35.0531 19.175C35.0531 19.175 32.1067 16.487 29.5183 16.487C28.4159 16.487 25.9817 16.9887 25.9817 19.8562C25.9817 22.222 27.8781 23.4402 29.8254 23.4402Z" fill="white"/>
<path d="M48.3249 6.02189V8.67459L47.4277 11.6495H48.1452C49.5292 7.38429 51.7582 5.59228 54.1668 5.59228C56.3193 5.59228 58.2666 7.09739 59.1116 11.3979H59.931C61.0066 7.77859 63.2369 5.59228 65.8494 5.59228C69.744 5.59228 72.4088 8.74668 72.4088 15.3762V26.165H68.6161V16.2369C68.6161 12.1865 67.6425 9.7854 64.7979 9.7854C62.2619 9.7854 60.4165 12.5808 60.4165 16.2722V26.165H56.6238V16.2016C56.6238 12.1512 55.5991 9.71478 52.7546 9.71478C49.9101 9.71478 48.3222 13.0119 48.3222 15.4498V26.1665H44.4785V6.02189H48.3222H48.3249Z" fill="white"/>
<path d="M77.5095 3.8356L74.8701 3.87091V-4.76837e-07H81.3786V22.0779H84.8374V26.1636H80.7375C78.7902 26.1636 77.5095 24.3363 77.5095 21.6482V3.8356Z" fill="white"/>
<path d="M91.9862 13.8343C95.343 13.8343 97.8791 15.9485 99.6212 17.5611C99.6467 16.9166 99.6212 15.4822 99.6212 14.9084C99.6212 11.3243 98.3659 9.85455 95.06 9.85455H87.5779L87.5524 5.98364H96.4173C101.286 5.98364 103.464 8.81583 103.464 15.4101V22.1838H106V26.1974H101.489V26.1621L101.003 26.1974C100.183 26.1974 99.8237 24.9424 99.8237 24.1185C99.8237 22.9724 100.311 20.8567 100.567 20.3197L99.7982 19.7459C98.0816 25.1219 94.6228 26.5196 92.2142 26.5196C89.0625 26.5196 85.9873 24.0817 85.9873 19.7812C85.9873 15.4807 88.8573 13.8314 91.9835 13.8314L91.9862 13.8343ZM93.6773 23.4402C97.3413 23.4402 98.9037 19.175 98.9037 19.175C98.9037 19.175 95.9572 16.487 93.3689 16.487C92.2678 16.487 89.8323 16.9887 89.8323 19.8562C89.8323 22.222 91.7287 23.4402 93.676 23.4402H93.6773Z" fill="white"/>
</svg>
