<?xml version="1.0" encoding="UTF-8"?>
<!DOCTYPE svg PUBLIC "-//W3C//DTD SVG 1.1//EN" "http://www.w3.org/Graphics/SVG/1.1/DTD/svg11.dtd">
<svg xmlns="http://www.w3.org/2000/svg" version="1.1" width="42px" height="42px" style="shape-rendering:geometricPrecision; text-rendering:geometricPrecision; image-rendering:optimizeQuality; fill-rule:evenodd; clip-rule:evenodd" xmlns:xlink="http://www.w3.org/1999/xlink">
<g><path style="opacity:0.954" fill="#ffd34c" d="M 18.5,-0.5 C 19.1667,-0.5 19.8333,-0.5 20.5,-0.5C 20.5,1.83333 20.5,4.16667 20.5,6.5C 19.8826,6.38929 19.3826,6.05596 19,5.5C 18.5045,3.5273 18.3379,1.5273 18.5,-0.5 Z"/></g>
<g><path style="opacity:0.84" fill="#ddb846" d="M 20.5,-0.5 C 21.1667,-0.5 21.8333,-0.5 22.5,-0.5C 22.702,1.94965 22.3686,4.28298 21.5,6.5C 21.1667,6.5 20.8333,6.5 20.5,6.5C 20.5,4.16667 20.5,1.83333 20.5,-0.5 Z"/></g>
<g><path style="opacity:0.805" fill="#eac348" d="M 5.5,4.5 C 8.62089,5.2876 10.2876,7.2876 10.5,10.5C 6.43784,10.1312 4.77117,8.13121 5.5,4.5 Z"/></g>
<g><path style="opacity:0.926" fill="#fec006" d="M 21.5,6.5 C 22.5,6.5 23.5,6.5 24.5,6.5C 23.9492,9.80673 23.6159,13.1401 23.5,16.5C 21.5,18.5 19.5,20.5 17.5,22.5C 15.5,22.5 13.5,22.5 11.5,22.5C 13.8038,16.5668 17.1371,11.2334 21.5,6.5 Z"/></g>
<g><path style="opacity:0.706" fill="#e8c147" d="M 33.5,4.5 C 34.9953,4.41483 35.9953,5.08149 36.5,6.5C 35.2723,9.07147 33.2723,10.4048 30.5,10.5C 30.615,8.05322 31.615,6.05322 33.5,4.5 Z"/></g>
<g><path style="opacity:0.921" fill="#dea805" d="M 23.5,16.5 C 25.5,16.5 27.5,16.5 29.5,16.5C 29.6567,17.8734 29.49,19.2068 29,20.5C 25.5168,24.8067 22.6834,29.4734 20.5,34.5C 20.1667,34.5 19.8333,34.5 19.5,34.5C 18.5,34.5 17.5,34.5 16.5,34.5C 17.1621,30.5341 17.4955,26.5341 17.5,22.5C 19.5,20.5 21.5,18.5 23.5,16.5 Z"/></g>
<g><path style="opacity:0.957" fill="#ffd54d" d="M -0.5,18.5 C 1.5273,18.3379 3.5273,18.5045 5.5,19C 6.77359,19.9772 6.77359,20.8106 5.5,21.5C 3.73535,20.5386 1.73535,20.2053 -0.5,20.5C -0.5,19.8333 -0.5,19.1667 -0.5,18.5 Z"/></g>
<g><path style="opacity:0.838" fill="#ddb744" d="M -0.5,20.5 C 1.73535,20.2053 3.73535,20.5386 5.5,21.5C 3.73535,22.4614 1.73535,22.7947 -0.5,22.5C -0.5,21.8333 -0.5,21.1667 -0.5,20.5 Z"/></g>
<g><path style="opacity:0.84" fill="#e9c148" d="M 41.5,18.5 C 41.5,19.8333 41.5,21.1667 41.5,22.5C 39.4727,22.6621 37.4727,22.4955 35.5,22C 34.1667,21 34.1667,20 35.5,19C 37.4727,18.5045 39.4727,18.3379 41.5,18.5 Z"/></g>
<g><path style="opacity:0.723" fill="#f1c94a" d="M 7.5,30.5 C 8.5,30.5 9.5,30.5 10.5,30.5C 10.4048,33.2723 9.07147,35.2723 6.5,36.5C 5.5,36.1667 4.83333,35.5 4.5,34.5C 5.52435,33.1482 6.52435,31.8149 7.5,30.5 Z"/></g>
<g><path style="opacity:0.767" fill="#e8c147" d="M 30.5,30.5 C 33.8591,30.6981 35.6924,32.3647 36,35.5C 35.2825,36.4506 34.4491,36.6172 33.5,36C 31.393,34.7365 30.393,32.9032 30.5,30.5 Z"/></g>
<g><path style="opacity:0.873" fill="#ffd54c" d="M 19.5,34.5 C 19.8333,34.5 20.1667,34.5 20.5,34.5C 21.1667,34.5 21.5,34.8333 21.5,35.5C 20.5386,37.2646 20.2053,39.2646 20.5,41.5C 19.8333,41.5 19.1667,41.5 18.5,41.5C 18.298,39.0504 18.6314,36.717 19.5,34.5 Z"/></g>
<g><path style="opacity:0.251" fill="#dbb644" d="M 21.5,35.5 C 22.4614,37.2646 22.7947,39.2646 22.5,41.5C 21.8333,41.5 21.1667,41.5 20.5,41.5C 20.2053,39.2646 20.5386,37.2646 21.5,35.5 Z"/></g>
</svg>
