<svg width="48" height="41" viewBox="0 0 48 41" fill="none" xmlns="http://www.w3.org/2000/svg">
<path d="M17.7692 24.25H38.7983L31.8142 15.0767L26.4666 21.9134L22.9357 17.5433L17.7692 24.25ZM4.44244 40.8651C3.32044 40.8651 2.36194 40.4678 1.56694 39.6732C0.772313 38.8786 0.375 37.9202 0.375 36.7982V9.71162H3.75V36.7982C3.75 37 3.81488 37.1657 3.94463 37.2955C4.07438 37.4252 4.24031 37.4901 4.44244 37.4901H40.875V40.8651H4.44244ZM12.3174 32.9901C11.1951 32.9901 10.2366 32.5928 9.44194 31.7982C8.64731 31.0036 8.25 30.0452 8.25 28.9232V4.69244C8.25 3.57044 8.64731 2.61194 9.44194 1.81694C10.2366 1.02231 11.1951 0.625 12.3174 0.625H23.5241L28.0241 5.125H43.5576C44.6796 5.125 45.6381 5.52231 46.4331 6.31694C47.2277 7.11194 47.625 8.07044 47.625 9.19244V28.9232C47.625 30.0452 47.2277 31.0036 46.4331 31.7982C45.6381 32.5928 44.6796 32.9901 43.5576 32.9901H12.3174ZM12.3174 29.6157H43.5576C43.7597 29.6157 43.9256 29.5506 44.0554 29.4205C44.1851 29.2907 44.25 29.125 44.25 28.9232V9.19244C44.25 8.99031 44.1851 8.82438 44.0554 8.69463C43.9256 8.56488 43.7597 8.5 43.5576 8.5H26.6438L22.1438 4H12.3174C12.1153 4 11.9494 4.06488 11.8196 4.19463C11.6899 4.32438 11.625 4.49031 11.625 4.69244V28.9232C11.625 29.125 11.6899 29.2907 11.8196 29.4205C11.9494 29.5506 12.1153 29.6157 12.3174 29.6157Z" fill="#2456F7"/>
</svg>
