<svg width="129" height="33" viewBox="0 0 129 33" fill="none" xmlns="http://www.w3.org/2000/svg">
<path d="M24.0412 22.9435C24.0412 29.3983 18.647 32.4529 11.9423 32.4529C1.6207 32.4511 0 26.0841 0 21.8961H5.08244C5.05143 26.0393 7.73301 27.7403 11.9113 27.7403C16.775 27.7403 19.1138 26.1271 19.1138 23.0295C19.1138 14.6105 0.310104 23.8155 0.310104 10.1629C0.311736 4.3187 4.552 0.871979 12.3487 0.871979C18.9898 0.871979 23.8241 3.88182 23.7311 11.7762H18.9604C18.9604 7.23902 16.3408 5.45209 12.3503 5.45209C8.11003 5.45209 5.39581 6.93463 5.39581 10.5121C5.39581 18.1898 24.0429 10.2506 24.0429 22.9435H24.0412Z" fill="black"/>
<path d="M34.2387 16.8361C38.324 16.8361 41.4103 19.4091 43.5304 21.3715C43.5615 20.5872 43.5304 18.8415 43.5304 18.1432C43.5304 13.7815 42.0028 11.9928 37.9796 11.9928H28.874L28.8429 7.28198H39.6329C45.5575 7.28198 48.2081 10.7287 48.2081 18.7538V26.9972H51.2945V31.8817H45.8056V31.8388L45.2132 31.8817C44.2159 31.8817 43.7785 30.3544 43.7785 29.3518C43.7785 27.957 44.371 25.3822 44.6827 24.7287L43.7475 24.0304C41.6584 30.5729 37.4491 32.2739 34.5178 32.2739C30.6823 32.2739 26.9399 29.307 26.9399 24.0733C26.9399 18.8397 30.4326 16.8325 34.2371 16.8325L34.2387 16.8361ZM36.2969 28.5263C40.7558 28.5263 42.6589 23.3357 42.6589 23.3357C42.6589 23.3357 39.0731 20.0644 35.9231 20.0644C34.5815 20.0644 31.6192 20.675 31.6192 24.1647C31.6192 27.0438 33.927 28.5263 36.2969 28.5263Z" fill="black"/>
<path d="M58.8104 7.32854V10.5568L57.7185 14.1772H58.5917C60.276 8.98655 62.9886 6.80571 65.9199 6.80571C68.5395 6.80571 70.9093 8.6374 71.9376 13.871H72.9348C74.2438 9.4664 76.958 6.80571 80.1374 6.80571C84.8771 6.80571 88.1201 10.6446 88.1201 18.7126V31.8424H83.5045V19.76C83.5045 14.8308 82.3195 11.9087 78.8578 11.9087C75.7715 11.9087 73.5256 15.3106 73.5256 19.803V31.8424H68.91V19.717C68.91 14.7878 67.663 11.8227 64.2013 11.8227C60.7396 11.8227 58.8071 15.8352 58.8071 18.8021V31.8441H54.1295V7.32854H58.8071H58.8104Z" fill="black"/>
<path d="M94.3271 4.66785L91.1151 4.71082V0H99.0358V26.8683H103.245V31.8406H98.2557C95.8858 31.8406 94.3271 29.6168 94.3271 26.3455V4.66785Z" fill="#0D65FD"/>
<path d="M111.946 16.8361C116.031 16.8361 119.117 19.4091 121.238 21.3715C121.269 20.5872 121.238 18.8415 121.238 18.1432C121.238 13.7815 119.71 11.9928 115.687 11.9928H106.581L106.55 7.28198H117.338C123.263 7.28198 125.914 10.7287 125.914 18.7538V26.9972H129V31.8817H123.511V31.8388L122.919 31.8817C121.921 31.8817 121.484 30.3544 121.484 29.3518C121.484 27.957 122.076 25.3822 122.388 24.7287L121.453 24.0304C119.364 30.5729 115.155 32.2739 112.223 32.2739C108.388 32.2739 104.645 29.307 104.645 24.0733C104.645 18.8397 108.138 16.8325 111.943 16.8325L111.946 16.8361ZM114.004 28.5263C118.463 28.5263 120.364 23.3357 120.364 23.3357C120.364 23.3357 116.779 20.0644 113.629 20.0644C112.289 20.0644 109.325 20.675 109.325 24.1647C109.325 27.0438 111.633 28.5263 114.002 28.5263H114.004Z" fill="#0D65FD"/>
</svg>
